<svg xmlns="http://www.w3.org/2000/svg" width="1943.138" height="443.93" viewBox="0 0 1943.138 443.93"><defs><style>.a,.b,.c{fill:none;stroke-miterlimit:10;stroke-width:2px;}.a{stroke:#1b9c98;}.b{stroke:#f38562;}.c{stroke:#b7c443;}</style></defs><g transform="translate(22.442 -7495.224)"><g transform="translate(-22 7496)"><path class="a" d="M1942.066,85.468a900.865,900.865,0,0,1-81.344,59.034c-236.706,152.283-480.325,147.745-622.6,132.217-282.358-30.886-425.683-147.4-712.129-162.882-105.031-5.67-198.673,3.84-280.239,21.156A1046.888,1046.888,0,0,0,0,220.448" transform="translate(0 11.08)"/><path class="b" d="M1942.066,50.987a900.589,900.589,0,0,1-81.344,59.034c-236.706,152.285-480.325,147.746-622.6,132.218C955.761,211.352,812.436,94.839,525.99,79.357c-105.031-5.67-198.673,3.84-280.239,21.156A1046.826,1046.826,0,0,0,0,185.969" transform="translate(0 -2.714)"/><path class="c" d="M1942.066,16.507a900.588,900.588,0,0,1-81.344,59.034c-236.706,152.285-480.325,147.745-622.6,132.218C955.761,176.872,812.436,60.359,525.99,44.877c-105.031-5.67-198.673,3.84-280.239,21.156A1046.762,1046.762,0,0,0,0,151.489" transform="translate(0 -16.507)"/></g><g transform="translate(-22 7643.145)"><path class="a" d="M1942.066,85.468a900.865,900.865,0,0,1-81.344,59.034c-236.706,152.283-480.325,147.745-622.6,132.217-282.358-30.886-425.683-147.4-712.129-162.882-105.031-5.67-198.673,3.84-280.239,21.156A1046.888,1046.888,0,0,0,0,220.448" transform="translate(0 11.08)"/><path class="b" d="M1942.066,50.987a900.589,900.589,0,0,1-81.344,59.034c-236.706,152.285-480.325,147.746-622.6,132.218C955.761,211.352,812.436,94.839,525.99,79.357c-105.031-5.67-198.673,3.84-280.239,21.156A1046.826,1046.826,0,0,0,0,185.969" transform="translate(0 -2.714)"/><path class="c" d="M1942.066,16.507a900.588,900.588,0,0,1-81.344,59.034c-236.706,152.285-480.325,147.745-622.6,132.218C955.761,176.872,812.436,60.359,525.99,44.877c-105.031-5.67-198.673,3.84-280.239,21.156A1046.762,1046.762,0,0,0,0,151.489" transform="translate(0 -16.507)"/></g></g></svg>